<?xml version="1.0" standalone="no"?>
<!DOCTYPE svg PUBLIC "-//W3C//DTD SVG 20010904//EN"
 "http://www.w3.org/TR/2001/REC-SVG-20010904/DTD/svg10.dtd">
<svg version="1.0" xmlns="http://www.w3.org/2000/svg"
 width="256.000000pt" height="256.000000pt" viewBox="0 0 256.000000 256.000000"
 preserveAspectRatio="xMidYMid meet">
<metadata>
Created by potrace 1.11, written by Peter Selinger 2001-2013
</metadata>
<g transform="translate(0.000000,256.000000) scale(0.100000,-0.100000)"
fill="#000000" stroke="none">
<path d="M0 1280 l0 -1280 1280 0 1280 0 0 1280 0 1280 -1280 0 -1280 0 0
-1280z m1536 303 c-2 -2 -49 19 -105 46 l-101 51 0 85 0 85 -80 -40 c-44 -22
-87 -40 -95 -40 -9 0 -42 14 -75 30 l-60 30 0 -67 0 -68 -205 -99 c-113 -55
-204 -103 -203 -108 2 -4 163 -96 358 -203 l355 -194 3 175 c1 95 5 174 7 174
3 0 50 -23 105 -50 l100 -50 -2 -222 -3 -223 -69 -37 c-38 -21 -73 -38 -77
-38 -8 0 -130 66 -759 413 -190 105 -373 206 -407 224 -35 19 -63 37 -63 41 0
4 309 159 688 344 l687 336 3 -295 c1 -163 0 -298 -2 -300z"/>
</g>
</svg>
